<svg xmlns="http://www.w3.org/2000/svg" xmlns:xlink="http://www.w3.org/1999/xlink" preserveAspectRatio="xMidYMid" width="272" height="176" viewBox="0 0 272 176">
  <defs>
    <style>
      .cls-1 {
        stroke: url(#linear-gradient-1);
        stroke-linecap: round;
        stroke-width: 4px;
        fill: none;
      }

      .cls-1, .cls-2 {
        fill-rule: evenodd;
      }

      .cls-2 {
        fill: #171616;
        filter: url(#color-overlay-1);
      }
    </style>

    <linearGradient id="linear-gradient-1" gradientUnits="userSpaceOnUse" x1="56.5" y1="8" x2="217.5" y2="169">
      <stop offset="0"/>
      <stop offset="1" stop-color="#fff"/>
    </linearGradient>
    <filter id="color-overlay-1" filterUnits="userSpaceOnUse">
      <feFlood flood-color="#fff"/>
      <feComposite operator="in" in2="SourceGraphic"/>
      <feBlend in2="SourceGraphic" result="solidFill"/>
    </filter>
  </defs>
  <path d="M7.000,8.000 L267.000,8.000 L267.000,169.000 L7.000,169.000 L7.000,8.000 Z" class="cls-1"/>
  <path d="M237.355,162.027 L215.253,139.926 L215.253,109.559 L226.304,109.559 L226.304,134.445 L237.355,145.496 L248.316,134.445 L248.316,109.559 L259.366,109.559 L259.366,139.926 L237.355,162.027 ZM187.566,88.521 C181.457,88.521 176.260,86.365 171.979,82.052 C167.695,77.740 165.555,72.529 165.555,66.420 L165.555,58.154 C165.555,52.105 167.695,46.909 171.979,42.566 C176.260,38.224 181.457,36.052 187.566,36.052 C193.676,36.052 198.871,38.224 203.154,42.566 C207.436,46.909 209.578,52.105 209.578,58.154 L209.578,66.420 C209.578,72.529 207.436,77.740 203.154,82.052 C198.871,86.365 193.676,88.521 187.566,88.521 ZM198.527,58.154 C198.527,55.099 197.479,52.494 195.383,50.338 C193.286,48.181 190.680,47.103 187.566,47.103 C184.451,47.103 181.846,48.181 179.750,50.338 C177.653,52.494 176.605,55.099 176.605,58.154 L176.605,66.420 C176.605,69.474 177.653,72.080 179.750,74.236 C181.846,76.392 184.451,77.470 187.566,77.470 C190.680,77.470 193.286,76.392 195.383,74.236 C197.479,72.080 198.527,69.474 198.527,66.420 L198.527,58.154 ZM163.668,47.103 C160.553,47.103 157.932,48.181 155.807,50.338 C153.680,52.494 152.617,55.099 152.617,58.154 L152.617,88.521 L152.542,88.521 L152.542,162.027 L141.581,162.027 L141.581,159.063 C138.107,161.039 134.394,162.027 130.441,162.027 C124.451,162.027 119.269,159.871 114.898,155.559 C110.525,151.246 108.339,146.035 108.339,139.926 L108.339,131.660 C108.339,125.551 110.495,120.340 114.808,116.027 C119.120,111.715 124.331,109.559 130.441,109.559 C134.394,109.559 138.107,110.547 141.581,112.523 L141.581,88.521 L141.566,88.521 L141.566,36.052 L152.617,36.052 L152.617,39.017 C156.031,37.041 159.715,36.052 163.668,36.052 C168.039,36.052 168.039,36.113 163.668,36.232 L163.668,47.103 ZM141.581,131.660 C141.581,128.605 140.488,126.000 138.302,123.844 C136.115,121.688 133.509,120.609 130.486,120.609 C127.460,120.609 124.870,121.688 122.714,123.844 C120.558,126.000 119.480,128.605 119.480,131.660 L119.480,139.926 C119.480,142.980 120.558,145.586 122.714,147.742 C124.870,149.898 127.460,150.977 130.486,150.977 C133.509,150.977 136.115,149.898 138.302,147.742 C140.488,145.586 141.581,142.980 141.581,139.926 L141.581,131.660 ZM113.715,74.236 C115.871,76.392 118.477,77.470 121.531,77.470 C122.309,77.470 122.983,77.201 123.553,76.662 C124.121,76.123 124.406,75.464 124.406,74.685 L135.367,74.685 C135.367,78.519 134.020,81.783 131.324,84.478 C128.629,87.173 125.364,88.521 121.531,88.521 C115.481,88.521 110.301,86.365 105.988,82.052 C101.676,77.740 99.520,72.529 99.520,66.420 L99.520,47.103 L91.164,47.103 L91.164,36.052 L99.520,36.052 L99.520,25.002 L110.480,25.002 L110.480,36.052 L135.367,36.052 L135.367,47.103 L110.480,47.103 L110.480,66.420 C110.480,69.474 111.559,72.080 113.715,74.236 ZM71.938,58.154 C71.938,55.099 70.873,52.494 68.748,50.338 C66.621,48.181 64.016,47.103 60.932,47.103 C57.846,47.103 55.241,48.181 53.115,50.338 C50.988,52.494 49.926,55.099 49.926,58.154 L49.926,88.521 L38.875,88.521 L38.875,36.052 L49.926,36.052 L49.926,39.017 C53.399,37.041 57.082,36.052 60.977,36.052 C67.026,36.052 72.207,38.224 76.520,42.566 C80.832,46.909 82.988,52.105 82.988,58.154 L82.988,88.521 L71.938,88.521 L71.938,58.154 ZM17.941,36.052 L28.992,36.052 L28.992,88.521 L17.941,88.521 L17.941,36.052 ZM17.941,19.521 L28.992,19.521 L28.992,30.572 L17.941,30.572 L17.941,19.521 ZM185.066,109.559 C191.115,109.559 196.296,111.730 200.609,116.072 C204.921,120.416 207.077,125.611 207.077,131.660 L207.077,139.926 L174.105,139.926 C174.105,142.980 175.167,145.586 177.294,147.742 C179.420,149.898 182.011,150.977 185.066,150.977 L190.546,150.977 C191.265,150.977 191.908,150.707 192.478,150.168 C193.046,149.629 193.331,148.971 193.331,148.191 L204.472,148.191 C204.472,152.025 203.124,155.289 200.429,157.984 C197.734,160.680 194.439,162.027 190.546,162.027 L185.066,162.027 C179.015,162.027 173.804,159.871 169.433,155.559 C165.060,151.246 162.874,146.035 162.874,139.926 L162.874,131.660 C162.874,125.611 165.060,120.416 169.433,116.072 C173.804,111.730 179.015,109.559 185.066,109.559 ZM195.757,128.875 C195.158,126.480 193.884,124.504 191.939,122.945 C189.992,121.388 187.730,120.609 185.155,120.609 C182.579,120.609 180.288,121.388 178.282,122.945 C176.275,124.504 174.972,126.480 174.374,128.875 L195.757,128.875 Z" class="cls-2"/>
</svg>
