<?xml version="1.0" encoding="UTF-8"?>
<!DOCTYPE svg PUBLIC "-//W3C//DTD SVG 1.1//EN" "http://www.w3.org/Graphics/SVG/1.1/DTD/svg11.dtd">
<!-- Creator: CorelDRAW X8 -->
<svg xmlns="http://www.w3.org/2000/svg" xml:space="preserve" width="4100mm" height="2300mm" version="1.1" style="shape-rendering:geometricPrecision; text-rendering:geometricPrecision; image-rendering:optimizeQuality; fill-rule:evenodd; clip-rule:evenodd"
viewBox="0 0 410000 230000"
 xmlns:xlink="http://www.w3.org/1999/xlink">
 <defs>
  <style type="text/css">
   <![CDATA[
    .str0 {stroke:#373435;stroke-width:20}
    .fil9 {fill:none}
    .fil5 {fill:#EE3B3B}
    .fil3 {fill:#ED8A37}
    .fil7 {fill:#CA719C}
    .fil4 {fill:#7461A8}
    .fil8 {fill:#45B977}
    .fil6 {fill:#3D85C5}
    .fil2 {fill:url(#id9)}
    .fil0 {fill:url(#id10)}
    .fil1 {fill:url(#id11)}
   ]]>
  </style>
    <clipPath id="id0">
     <path d="M3495 9697l0 190002c1545,1707 827,1878 4522,1864l103127 -1c2845,3 4222,230 5035,-1677 523,-1228 206,-8083 207,-9899 4,-5229 -962,-4654 -8009,-4654l-73694 0c-4738,0 -10111,163 -14768,-23 -654,-712 -269,-19321 -269,-20010l0 -131085c0,-2901 -393,-7474 68,-10173 1805,-341 40767,-108 46157,-108 106223,0 212447,0 318670,0 1117,0 5052,-127 5866,164 -446,10027 -22,20549 -22,30631 0,5262 -324,74846 115,76388 752,2637 4133,1938 8126,1938 7862,0 6263,341 8049,-2148l0 -121144c-1119,-1273 -465,-916 -2066,-1974l-399081 0c-1700,1063 -895,568 -2033,1909z"/>
    </clipPath>
    <clipPath id="id1">
     <path d="M215478 175761c284,5896 21,12117 21,18050 0,5175 908,12319 -3739,15476 -3800,2582 -17193,1748 -23653,1748 -4359,0 -8719,0 -13078,1 -4845,2 -7591,-316 -10168,-2199 -4183,-3055 -3157,-11164 -3157,-15896 0,-18923 1650,-17194 27409,-17194 8678,0 17734,-174 26365,14zm-46965 48995l40591 0c1653,-517 4534,-516 6436,-863 16339,-2978 16196,-15013 16196,-25388l0 -83797c0,-6691 -424,-14092 106,-20689 259,-3224 981,-6255 3616,-7954 3112,-2006 7829,-1761 12762,-1761l22636 0c2515,0 5195,479 5678,-1292 437,-1599 213,-8426 99,-10387 -140,-2395 -1394,-2047 -4519,-2043 -8151,10 -31274,-284 -37158,382 -20878,2363 -19578,16237 -19578,28271l121 62773c-15081,401 -30912,-466 -45928,71 -15345,549 -21617,5393 -23570,15503 -971,5021 -961,25867 -134,30988 1083,6700 4181,12405 13100,14772 4623,1227 7851,937 9546,1414z"/>
    </clipPath>
    <clipPath id="id2">
     <path d="M252715 187961c0,-9963 397,-13251 14620,-13245 5617,2 11234,0 16851,0 4279,0 12278,-676 14853,1178 2243,1615 2206,7807 1855,10453 -302,2275 -3354,1614 -6395,1614l-41784 0zm7516 36795l53413 0c1681,-1002 1341,-1628 1335,-3477l-44 -8700c-310,-1824 -1896,-1549 -4339,-1544 -8467,16 -16937,0 -25404,0 -5929,0 -20004,467 -24914,-364 -7894,-1337 -7563,-6711 -7563,-12537 12922,0 25844,0 38765,0 6233,0 13238,208 19375,-9 6835,-242 6073,-5053 6073,-9356 0,-7492 1110,-18681 -5059,-23486 -3088,-2405 -8730,-3223 -14603,-3256 -6531,-37 -13086,-1 -19619,-1 -12516,0 -25101,-1009 -33268,3920 -6887,4157 -7901,13302 -7901,21432 1,7639 -928,18751 1684,25739 2617,7000 8139,10201 17668,11251 1389,153 3202,98 4401,388z"/>
    </clipPath>
    <clipPath id="id3">
     <path d="M303354 84227c3339,-337 21539,-155 26357,-155 9570,0 15993,-639 17887,5921 1355,4695 750,12673 722,17760 -29,5382 -278,11055 -9019,12005 -3408,371 -21566,178 -26442,178 -9395,0 -15944,509 -17917,-5870 -1394,-4507 -796,-12867 -753,-17787 51,-5759 335,-11162 9165,-12052zm-1091 -13598c-14709,407 -21370,5013 -23545,14398 -1197,5167 -1228,24553 -633,30083 2145,19944 18061,18195 40056,18195 23104,0 41651,2692 45594,-14559 1145,-5009 1162,-24492 582,-29875 -2157,-20051 -18630,-18288 -39888,-18288 -7262,0 -15065,-151 -22166,46z"/>
    </clipPath>
    <clipPath id="id4">
     <path d="M97223 70610c-22652,610 -25028,10550 -25028,25495l0 31989c0,5858 -244,5211 8012,5211 10031,0 8333,2083 8333,-15642 0,-7088 -203,-14319 29,-21389 295,-9005 2923,-11173 14778,-11171 5292,1 27710,-204 31050,122 4693,457 6987,2080 7952,5123 1947,6144 -99,39838 1141,41984 799,1383 3847,973 6387,973 10943,0 9501,1467 9501,-9383 0,-10346 337,-22110 -42,-32141 -355,-9426 -2992,-18126 -16688,-20404 -4977,-828 -9204,-794 -14401,-794 -10150,0 -20974,-244 -31024,27z"/>
    </clipPath>
    <clipPath id="id5">
     <path d="M354301 224756l13312 0c1427,-514 2853,-263 4987,-1993 1048,-850 1921,-2242 2664,-3551 2487,-4382 30607,-53894 31411,-54806l0 -1469c-1357,-1154 -923,-914 -4528,-911 -11362,8 -11295,-951 -13373,2721 -8549,15105 -17460,30222 -25910,45375 -356,638 -510,1076 -1175,1281 -2126,656 -2789,-1642 -3622,-3118l-22652 -39800c-4263,-7555 -1786,-6459 -13501,-6459 -3805,0 -8329,-787 -6653,2824 835,1801 2184,3828 3201,5616 6358,11171 12926,23064 19458,34012 1517,2542 8616,15462 9875,16995 2661,3244 4356,2619 6506,3283z"/>
    </clipPath>
    <clipPath id="id6">
     <path d="M174294 70583c-2303,0 -9517,-216 -11264,34 -2403,344 -1651,4255 -1651,6712 0,8322 -1693,6743 12915,6743 0,7745 -449,28374 599,34753 2412,14675 13638,14480 30066,14480 7676,0 8441,685 8422,-2950 -15,-2693 303,-6306 -32,-8881 -213,-1643 -1614,-1669 -3859,-1660 -19713,74 -18851,480 -18851,-17972 0,-5919 0,-11838 0,-17757 5213,-99 10597,-13 15829,-13 2673,0 5651,528 6130,-1276l26 -10798c-397,-1957 -3063,-1416 -5904,-1415 -5319,0 -10780,83 -16081,-13 0,-3832 0,-7664 0,-11495 0,-6494 1141,-6086 -8065,-6086 -9199,0 -8280,-572 -8280,5912 0,3894 0,7788 0,11682z"/>
    </clipPath>
    <clipPath id="id7">
     <path d="M50689 70618c-2878,409 -1999,5101 -1999,7928l0 46071c0,1986 -767,7542 1218,8429 920,411 11608,447 13119,201 2740,-447 1899,-5189 1899,-7934l0 -46071c0,-1851 785,-7539 -1217,-8421 -898,-396 -11532,-415 -13020,-203z"/>
    </clipPath>
    <clipPath id="id8">
     <path d="M50211 47520c-2334,585 -1628,3803 -1628,5644 0,2261 5,4522 -2,6783 -10,3023 348,3458 4713,3448 14093,-35 11567,2176 11634,-12492 15,-3269 -219,-3524 -4842,-3516 -1904,4 -8618,-182 -9875,133z"/>
    </clipPath>
  <linearGradient id="id9" gradientUnits="objectBoundingBox" x1="14.5245%" y1="4.05969%" x2="85.4755%" y2="95.9403%">
   <stop offset="0" style="stop-opacity:1; stop-color:#45B977"/>
   <stop offset="0.521569" style="stop-opacity:1; stop-color:#3D85C5"/>
   <stop offset="1" style="stop-opacity:1; stop-color:#7461A8"/>
  </linearGradient>
  <radialGradient id="id10" gradientUnits="userSpaceOnUse" gradientTransform="matrix(1 -0 -0 0.960784 0 12093)" cx="-461354" cy="308378" r="103632" fx="-461354" fy="308378">
   <stop offset="0" style="stop-opacity:1; stop-color:#CCCCCC"/>
   <stop offset="1" style="stop-opacity:0; stop-color:#CCCCCC"/>
  </radialGradient>
  <radialGradient id="id11" gradientUnits="userSpaceOnUse" gradientTransform="matrix(1 -0 -0 0.960784 0 -2037)" xlink:href="#id10" cx="-559290" cy="-51935.2" r="103632" fx="-559290" fy="-51935.2">
  </radialGradient>
 </defs>
 <g id="Camada_x0020_1">
  <metadata id="CorelCorpID_0Corel-Layer"/>
  <g id="_1904414302448">
   <g>
   </g>
   <g style="clip-path:url(#id0)">
    <g id="_1904414303824">
     <ellipse class="fil0" cx="-461354" cy="308377" rx="210774" ry="202509"/>
     <ellipse class="fil1" cx="-559290" cy="-51935" rx="210774" ry="202509"/>
     <rect class="fil2 str0" x="-22335" y="-12689" width="455787" height="253314"/>
     <rect class="fil3 str0" x="-316350" y="-206579" width="69870" height="60950"/>
     <rect class="fil4 str0" x="-307430" y="-77246" width="80276" height="92168"/>
     <rect class="fil5 str0" x="-294051" y="84792" width="68383" height="108521"/>
     <rect class="fil6 str0" x="-297024" y="230477" width="59463" height="80276"/>
     <rect class="fil7 str0" x="-427844" y="117497" width="68383" height="108521"/>
     <rect class="fil8 str0" x="-410268" y="-11844" width="51929" height="82409"/>
    </g>
   </g>
   <path class="fil9" d="M3495 9697l0 190002c1545,1707 827,1878 4522,1864l103127 -1c2845,3 4222,230 5035,-1677 523,-1228 206,-8083 207,-9899 4,-5229 -962,-4654 -8009,-4654l-73694 0c-4738,0 -10111,163 -14768,-23 -654,-712 -269,-19321 -269,-20010l0 -131085c0,-2901 -393,-7474 68,-10173 1805,-341 40767,-108 46157,-108 106223,0 212447,0 318670,0 1117,0 5052,-127 5866,164 -446,10027 -22,20549 -22,30631 0,5262 -324,74846 115,76388 752,2637 4133,1938 8126,1938 7862,0 6263,341 8049,-2148l0 -121144c-1119,-1273 -465,-916 -2066,-1974l-399081 0c-1700,1063 -895,568 -2033,1909z"/>
   <g>
   </g>
   <g style="clip-path:url(#id1)">
    <g>
     <ellipse class="fil0" cx="-461354" cy="308377" rx="210774" ry="202509"/>
     <ellipse class="fil1" cx="-559290" cy="-51935" rx="210774" ry="202509"/>
     <rect class="fil2 str0" x="-22335" y="-12689" width="455787" height="253314"/>
     <rect class="fil3 str0" x="-316350" y="-206579" width="69870" height="60950"/>
     <rect class="fil4 str0" x="-307430" y="-77246" width="80276" height="92168"/>
     <rect class="fil5 str0" x="-294051" y="84792" width="68383" height="108521"/>
     <rect class="fil6 str0" x="-297024" y="230477" width="59463" height="80276"/>
     <rect class="fil7 str0" x="-427844" y="117497" width="68383" height="108521"/>
     <rect class="fil8 str0" x="-410268" y="-11844" width="51929" height="82409"/>
    </g>
   </g>
   <path class="fil9" d="M215478 175761c284,5896 21,12117 21,18050 0,5175 908,12319 -3739,15476 -3800,2582 -17193,1748 -23653,1748 -4359,0 -8719,0 -13078,1 -4845,2 -7591,-316 -10168,-2199 -4183,-3055 -3157,-11164 -3157,-15896 0,-18923 1650,-17194 27409,-17194 8678,0 17734,-174 26365,14zm-46965 48995l40591 0c1653,-517 4534,-516 6436,-863 16339,-2978 16196,-15013 16196,-25388l0 -83797c0,-6691 -424,-14092 106,-20689 259,-3224 981,-6255 3616,-7954 3112,-2006 7829,-1761 12762,-1761l22636 0c2515,0 5195,479 5678,-1292 437,-1599 213,-8426 99,-10387 -140,-2395 -1394,-2047 -4519,-2043 -8151,10 -31274,-284 -37158,382 -20878,2363 -19578,16237 -19578,28271l121 62773c-15081,401 -30912,-466 -45928,71 -15345,549 -21617,5393 -23570,15503 -971,5021 -961,25867 -134,30988 1083,6700 4181,12405 13100,14772 4623,1227 7851,937 9546,1414z"/>
   <g>
   </g>
   <g style="clip-path:url(#id2)">
    <g>
     <ellipse class="fil0" cx="-461354" cy="308377" rx="210774" ry="202509"/>
     <ellipse class="fil1" cx="-559290" cy="-51935" rx="210774" ry="202509"/>
     <rect class="fil2 str0" x="-22335" y="-12689" width="455787" height="253314"/>
     <rect class="fil3 str0" x="-316350" y="-206579" width="69870" height="60950"/>
     <rect class="fil4 str0" x="-307430" y="-77246" width="80276" height="92168"/>
     <rect class="fil5 str0" x="-294051" y="84792" width="68383" height="108521"/>
     <rect class="fil6 str0" x="-297024" y="230477" width="59463" height="80276"/>
     <rect class="fil7 str0" x="-427844" y="117497" width="68383" height="108521"/>
     <rect class="fil8 str0" x="-410268" y="-11844" width="51929" height="82409"/>
    </g>
   </g>
   <path class="fil9" d="M252715 187961c0,-9963 397,-13251 14620,-13245 5617,2 11234,0 16851,0 4279,0 12278,-676 14853,1178 2243,1615 2206,7807 1855,10453 -302,2275 -3354,1614 -6395,1614l-41784 0zm7516 36795l53413 0c1681,-1002 1341,-1628 1335,-3477l-44 -8700c-310,-1824 -1896,-1549 -4339,-1544 -8467,16 -16937,0 -25404,0 -5929,0 -20004,467 -24914,-364 -7894,-1337 -7563,-6711 -7563,-12537 12922,0 25844,0 38765,0 6233,0 13238,208 19375,-9 6835,-242 6073,-5053 6073,-9356 0,-7492 1110,-18681 -5059,-23486 -3088,-2405 -8730,-3223 -14603,-3256 -6531,-37 -13086,-1 -19619,-1 -12516,0 -25101,-1009 -33268,3920 -6887,4157 -7901,13302 -7901,21432 1,7639 -928,18751 1684,25739 2617,7000 8139,10201 17668,11251 1389,153 3202,98 4401,388z"/>
   <g>
   </g>
   <g style="clip-path:url(#id3)">
    <g>
     <ellipse class="fil0" cx="-461354" cy="308377" rx="210774" ry="202509"/>
     <ellipse class="fil1" cx="-559290" cy="-51935" rx="210774" ry="202509"/>
     <rect class="fil2 str0" x="-22335" y="-12689" width="455787" height="253314"/>
     <rect class="fil3 str0" x="-316350" y="-206579" width="69870" height="60950"/>
     <rect class="fil4 str0" x="-307430" y="-77246" width="80276" height="92168"/>
     <rect class="fil5 str0" x="-294051" y="84792" width="68383" height="108521"/>
     <rect class="fil6 str0" x="-297024" y="230477" width="59463" height="80276"/>
     <rect class="fil7 str0" x="-427844" y="117497" width="68383" height="108521"/>
     <rect class="fil8 str0" x="-410268" y="-11844" width="51929" height="82409"/>
    </g>
   </g>
   <path class="fil9" d="M303354 84227c3339,-337 21539,-155 26357,-155 9570,0 15993,-639 17887,5921 1355,4695 750,12673 722,17760 -29,5382 -278,11055 -9019,12005 -3408,371 -21566,178 -26442,178 -9395,0 -15944,509 -17917,-5870 -1394,-4507 -796,-12867 -753,-17787 51,-5759 335,-11162 9165,-12052zm-1091 -13598c-14709,407 -21370,5013 -23545,14398 -1197,5167 -1228,24553 -633,30083 2145,19944 18061,18195 40056,18195 23104,0 41651,2692 45594,-14559 1145,-5009 1162,-24492 582,-29875 -2157,-20051 -18630,-18288 -39888,-18288 -7262,0 -15065,-151 -22166,46z"/>
   <g>
   </g>
   <g style="clip-path:url(#id4)">
    <g>
     <ellipse class="fil0" cx="-461354" cy="308377" rx="210774" ry="202509"/>
     <ellipse class="fil1" cx="-559290" cy="-51935" rx="210774" ry="202509"/>
     <rect class="fil2 str0" x="-22335" y="-12689" width="455787" height="253314"/>
     <rect class="fil3 str0" x="-316350" y="-206579" width="69870" height="60950"/>
     <rect class="fil4 str0" x="-307430" y="-77246" width="80276" height="92168"/>
     <rect class="fil5 str0" x="-294051" y="84792" width="68383" height="108521"/>
     <rect class="fil6 str0" x="-297024" y="230477" width="59463" height="80276"/>
     <rect class="fil7 str0" x="-427844" y="117497" width="68383" height="108521"/>
     <rect class="fil8 str0" x="-410268" y="-11844" width="51929" height="82409"/>
    </g>
   </g>
   <path class="fil9" d="M97223 70610c-22652,610 -25028,10550 -25028,25495l0 31989c0,5858 -244,5211 8012,5211 10031,0 8333,2083 8333,-15642 0,-7088 -203,-14319 29,-21389 295,-9005 2923,-11173 14778,-11171 5292,1 27710,-204 31050,122 4693,457 6987,2080 7952,5123 1947,6144 -99,39838 1141,41984 799,1383 3847,973 6387,973 10943,0 9501,1467 9501,-9383 0,-10346 337,-22110 -42,-32141 -355,-9426 -2992,-18126 -16688,-20404 -4977,-828 -9204,-794 -14401,-794 -10150,0 -20974,-244 -31024,27z"/>
   <g>
   </g>
   <g style="clip-path:url(#id5)">
    <g>
     <ellipse class="fil0" cx="-461354" cy="308377" rx="210774" ry="202509"/>
     <ellipse class="fil1" cx="-559290" cy="-51935" rx="210774" ry="202509"/>
     <rect class="fil2 str0" x="-22335" y="-12689" width="455787" height="253314"/>
     <rect class="fil3 str0" x="-316350" y="-206579" width="69870" height="60950"/>
     <rect class="fil4 str0" x="-307430" y="-77246" width="80276" height="92168"/>
     <rect class="fil5 str0" x="-294051" y="84792" width="68383" height="108521"/>
     <rect class="fil6 str0" x="-297024" y="230477" width="59463" height="80276"/>
     <rect class="fil7 str0" x="-427844" y="117497" width="68383" height="108521"/>
     <rect class="fil8 str0" x="-410268" y="-11844" width="51929" height="82409"/>
    </g>
   </g>
   <path class="fil9" d="M354301 224756l13312 0c1427,-514 2853,-263 4987,-1993 1048,-850 1921,-2242 2664,-3551 2487,-4382 30607,-53894 31411,-54806l0 -1469c-1357,-1154 -923,-914 -4528,-911 -11362,8 -11295,-951 -13373,2721 -8549,15105 -17460,30222 -25910,45375 -356,638 -510,1076 -1175,1281 -2126,656 -2789,-1642 -3622,-3118l-22652 -39800c-4263,-7555 -1786,-6459 -13501,-6459 -3805,0 -8329,-787 -6653,2824 835,1801 2184,3828 3201,5616 6358,11171 12926,23064 19458,34012 1517,2542 8616,15462 9875,16995 2661,3244 4356,2619 6506,3283z"/>
   <g>
   </g>
   <g style="clip-path:url(#id6)">
    <g>
     <ellipse class="fil0" cx="-461354" cy="308377" rx="210774" ry="202509"/>
     <ellipse class="fil1" cx="-559290" cy="-51935" rx="210774" ry="202509"/>
     <rect class="fil2 str0" x="-22335" y="-12689" width="455787" height="253314"/>
     <rect class="fil3 str0" x="-316350" y="-206579" width="69870" height="60950"/>
     <rect class="fil4 str0" x="-307430" y="-77246" width="80276" height="92168"/>
     <rect class="fil5 str0" x="-294051" y="84792" width="68383" height="108521"/>
     <rect class="fil6 str0" x="-297024" y="230477" width="59463" height="80276"/>
     <rect class="fil7 str0" x="-427844" y="117497" width="68383" height="108521"/>
     <rect class="fil8 str0" x="-410268" y="-11844" width="51929" height="82409"/>
    </g>
   </g>
   <path class="fil9" d="M174294 70583c-2303,0 -9517,-216 -11264,34 -2403,344 -1651,4255 -1651,6712 0,8322 -1693,6743 12915,6743 0,7745 -449,28374 599,34753 2412,14675 13638,14480 30066,14480 7676,0 8441,685 8422,-2950 -15,-2693 303,-6306 -32,-8881 -213,-1643 -1614,-1669 -3859,-1660 -19713,74 -18851,480 -18851,-17972 0,-5919 0,-11838 0,-17757 5213,-99 10597,-13 15829,-13 2673,0 5651,528 6130,-1276l26 -10798c-397,-1957 -3063,-1416 -5904,-1415 -5319,0 -10780,83 -16081,-13 0,-3832 0,-7664 0,-11495 0,-6494 1141,-6086 -8065,-6086 -9199,0 -8280,-572 -8280,5912 0,3894 0,7788 0,11682z"/>
   <g>
   </g>
   <g style="clip-path:url(#id7)">
    <g>
     <ellipse class="fil0" cx="-461354" cy="308377" rx="210774" ry="202509"/>
     <ellipse class="fil1" cx="-559290" cy="-51935" rx="210774" ry="202509"/>
     <rect class="fil2 str0" x="-22335" y="-12689" width="455787" height="253314"/>
     <rect class="fil3 str0" x="-316350" y="-206579" width="69870" height="60950"/>
     <rect class="fil4 str0" x="-307430" y="-77246" width="80276" height="92168"/>
     <rect class="fil5 str0" x="-294051" y="84792" width="68383" height="108521"/>
     <rect class="fil6 str0" x="-297024" y="230477" width="59463" height="80276"/>
     <rect class="fil7 str0" x="-427844" y="117497" width="68383" height="108521"/>
     <rect class="fil8 str0" x="-410268" y="-11844" width="51929" height="82409"/>
    </g>
   </g>
   <path class="fil9" d="M50689 70618c-2878,409 -1999,5101 -1999,7928l0 46071c0,1986 -767,7542 1218,8429 920,411 11608,447 13119,201 2740,-447 1899,-5189 1899,-7934l0 -46071c0,-1851 785,-7539 -1217,-8421 -898,-396 -11532,-415 -13020,-203z"/>
   <g>
   </g>
   <g style="clip-path:url(#id8)">
    <g>
     <ellipse class="fil0" cx="-461354" cy="308377" rx="210774" ry="202509"/>
     <ellipse class="fil1" cx="-559290" cy="-51935" rx="210774" ry="202509"/>
     <rect class="fil2 str0" x="-22335" y="-12689" width="455787" height="253314"/>
     <rect class="fil3 str0" x="-316350" y="-206579" width="69870" height="60950"/>
     <rect class="fil4 str0" x="-307430" y="-77246" width="80276" height="92168"/>
     <rect class="fil5 str0" x="-294051" y="84792" width="68383" height="108521"/>
     <rect class="fil6 str0" x="-297024" y="230477" width="59463" height="80276"/>
     <rect class="fil7 str0" x="-427844" y="117497" width="68383" height="108521"/>
     <rect class="fil8 str0" x="-410268" y="-11844" width="51929" height="82409"/>
    </g>
   </g>
   <path class="fil9" d="M50211 47520c-2334,585 -1628,3803 -1628,5644 0,2261 5,4522 -2,6783 -10,3023 348,3458 4713,3448 14093,-35 11567,2176 11634,-12492 15,-3269 -219,-3524 -4842,-3516 -1904,4 -8618,-182 -9875,133z"/>
  </g>
 </g>
</svg>
